
<svg xmlns="http://www.w3.org/2000/svg" viewBox="0 0 842.81 236.08"><defs><style>.cls-1{fill:#1d1d1b;}</style></defs><g id="logo"><path class="cls-1" d="M209.2,75.39A20.92,20.92,0,0,0,194,69a22,22,0,0,0-21.65,21.64V142.4A61.34,61.34,0,0,1,154.74,177a65.56,65.56,0,0,1-20.07,13.3,61.71,61.71,0,0,1-24.46,4.88A60.09,60.09,0,0,1,86,190.35,66.2,66.2,0,0,1,66.13,177,60.82,60.82,0,0,1,52.7,157.28a61.71,61.71,0,0,1-4.88-24.46V25.55a20.86,20.86,0,0,0-6.45-15.2,21.11,21.11,0,0,0-30.4,0,20.86,20.86,0,0,0-6.45,15.2V132.82a106.56,106.56,0,0,0,8.06,41.44,104.63,104.63,0,0,0,22.53,33.67,110.24,110.24,0,0,0,33.8,22.93,104,104,0,0,0,82.6,0,112.52,112.52,0,0,0,22.83-13.37,21.72,21.72,0,0,0,41.44-9.09l-.13-117.81A21.21,21.21,0,0,0,209.2,75.39Z" transform="translate(-4.52 -3.89)"/><path class="cls-1" d="M839.27,69.6a104.38,104.38,0,0,0-22.53-33.66A110.34,110.34,0,0,0,783,13a104,104,0,0,0-82.61,0,112.52,112.52,0,0,0-22.83,13.37,21.71,21.71,0,0,0-41.44,9.08l0,26.43q2.8,5.19,5.18,10.68a124.35,124.35,0,0,1,10,49.39v51.9a21.85,21.85,0,0,0,28.27-20.59v-51.8a61.35,61.35,0,0,1,17.62-34.64,65.44,65.44,0,0,1,20.07-13.3,61.64,61.64,0,0,1,24.46-4.88,60.18,60.18,0,0,1,24.19,4.86,66.56,66.56,0,0,1,19.89,13.32,60.9,60.9,0,0,1,13.42,19.75A61.72,61.72,0,0,1,804,111V218.31a21.65,21.65,0,0,0,43.29,0V111A106.56,106.56,0,0,0,839.27,69.6Z" transform="translate(-4.52 -3.89)"/><path class="cls-1" d="M642,114.4c-.06-1.09-.14-2.17-.23-3.25-.08-.89-.17-1.77-.27-2.65s-.19-1.62-.3-2.43c-.14-1-.28-2.1-.45-3.15-.07-.42-.15-.85-.22-1.27a113.65,113.65,0,0,0-4.41-17.42h0c-.93-2.75-1.94-5.46-3.08-8.13a118.32,118.32,0,0,0-62.69-62.68,118.61,118.61,0,0,0-91.7,0,119.1,119.1,0,0,0-37.43,25.25A116.58,116.58,0,0,0,428,54.56a45,45,0,0,1,4.39,12.55,30.62,30.62,0,0,1-2,19.22,24.58,24.58,0,0,1-17.09,13.36,32.1,32.1,0,0,1-4.57.72,120,120,0,0,0-.22,41.84l1,.1a25.9,25.9,0,0,1,20.12,13.58,28.25,28.25,0,0,1,1.94,22.46,49.68,49.68,0,0,1-4.21,10.12,117.66,117.66,0,0,0,13.87,16.74,119.19,119.19,0,0,0,37.43,25.24,118.61,118.61,0,0,0,91.7,0,119.39,119.39,0,0,0,32.36-20.44v.1a19.78,19.78,0,0,0,39.55,0V122h0c0-1.84,0-3.67-.13-5.49C642.11,115.78,642.06,115.09,642,114.4Zm-39.29,11.08a82.81,82.81,0,0,1-6.08,27,78.78,78.78,0,0,1-41.82,41.64,78.57,78.57,0,0,1-60.61,0,78.22,78.22,0,0,1-41.82-41.82,78.45,78.45,0,0,1,0-60.61,78.16,78.16,0,0,1,41.82-41.81,78.45,78.45,0,0,1,60.61,0,78.18,78.18,0,0,1,41.81,41.81A76.76,76.76,0,0,1,602.72,122Z" transform="translate(-4.52 -3.89)"/><path class="cls-1" d="M421.75,160.18a19.79,19.79,0,0,0-1.06-1.72c-.13-.18-.27-.34-.4-.52-.26-.35-.53-.7-.81-1s-.35-.37-.53-.56-.54-.55-.83-.81-.41-.36-.62-.53-.58-.46-.89-.67-.45-.32-.69-.47l-1-.56-.74-.38c-.35-.17-.72-.32-1.09-.47l-.73-.29q-.7-.24-1.44-.42a20.37,20.37,0,0,0-2.65-.53,17.86,17.86,0,0,0-14.58,4.34,41.65,41.65,0,0,0-8.74,10.7c-9.7,12.69-19.86,21.59-30.21,26.46A74.56,74.56,0,0,1,323,200.16a76.81,76.81,0,0,1-30.3-6.08,78.13,78.13,0,0,1-41.82-41.82,78.45,78.45,0,0,1,0-60.61,78.18,78.18,0,0,1,41.81-41.81A76.83,76.83,0,0,1,323,43.75c10.63,0,21.79,2.46,33.16,7.32,11.08,4.72,20.93,13.28,29.27,25.41l.33.43c3.11,3.67,6.17,7,9.09,9.94S403,92.9,411.21,91c.65-.15,1.27-.33,1.87-.53a15.25,15.25,0,0,0,9.2-8c.23-.49.44-1,.63-1.51s.36-1,.5-1.57a20,20,0,0,0,.59-3.33c.05-.58.08-1.16.09-1.75s0-1.3-.06-2a29,29,0,0,0-.48-3.59c-.15-.82-.34-1.66-.57-2.51s-.49-1.68-.79-2.54h0c-2.09-5.94-6.06-12.39-12.09-19.57l-.17-.19c-13-14.12-26.8-24.39-41.06-30.52a118.64,118.64,0,0,0-91.71,0A118.11,118.11,0,0,0,217,70.65a29.8,29.8,0,0,1,7.62,19.93l.11,96.21a117.82,117.82,0,0,0,15,18.46,119.42,119.42,0,0,0,37.43,25.24,118.64,118.64,0,0,0,91.71,0c14.33-6.16,28.19-17.3,41.2-33.12,5.6-6.35,9.43-12.25,11.67-17.93h0c.22-.56.43-1.11.62-1.66s.45-1.32.63-2a21.78,21.78,0,0,0,.93-4.08,16.82,16.82,0,0,0,.15-2,18.22,18.22,0,0,0-.31-3.91A19.3,19.3,0,0,0,421.75,160.18Z" transform="translate(-4.52 -3.89)"/></g></svg>